<?xml version="1.0" encoding="UTF-8" standalone="no"?>
<svg
   xmlns:dc="http://purl.org/dc/elements/1.1/"
   xmlns:cc="http://creativecommons.org/ns#"
   xmlns:rdf="http://www.w3.org/1999/02/22-rdf-syntax-ns#"
   xmlns:svg="http://www.w3.org/2000/svg"
   xmlns="http://www.w3.org/2000/svg"
   xmlns:sodipodi="http://sodipodi.sourceforge.net/DTD/sodipodi-0.dtd"
   xmlns:inkscape="http://www.inkscape.org/namespaces/inkscape"
   viewBox="0 0 50 50"
   version="1.1"
   fill="#000000"
   id="svg2"
   inkscape:version="0.91 r13725"
   sodipodi:docname="icons8-pencil_tip.svg">
  <metadata
     id="metadata11">
    <rdf:RDF>
      <cc:Work
         rdf:about="">
        <dc:format>image/svg+xml</dc:format>
        <dc:type
           rdf:resource="http://purl.org/dc/dcmitype/StillImage" />
      </cc:Work>
    </rdf:RDF>
  </metadata>
  <defs
     id="defs9" />
  <sodipodi:namedview
     pagecolor="#ffffff"
     bordercolor="#666666"
     borderopacity="1"
     objecttolerance="10"
     gridtolerance="10"
     guidetolerance="10"
     inkscape:pageopacity="0"
     inkscape:pageshadow="2"
     inkscape:window-width="1203"
     inkscape:window-height="841"
     id="namedview7"
     showgrid="false"
     inkscape:zoom="9.44"
     inkscape:cx="22.698757"
     inkscape:cy="29.443137"
     inkscape:window-x="0"
     inkscape:window-y="0"
     inkscape:window-maximized="0"
     inkscape:current-layer="svg2" />
  <g
     id="surface1"
     transform="matrix(0.65220132,0,0,0.65220132,8.6745472,8.695717)"
     style="fill:#ffffff;fill-opacity:0">
    <path
       style="fill:#ffffff;fill-opacity:0"
       d="M 35.6875,2 C 35.460938,2.03125 35.25,2.144531 35.09375,2.3125 l -26,25.96875 c -0.097656,0.109375 -0.175781,0.234375 -0.21875,0.375 l -6.8125,18 c -0.132812,0.363281 -0.042969,0.773438 0.234375,1.046875 0.273438,0.277344 0.683594,0.367188 1.046875,0.234375 l 18,-6.8125 c 0.140625,-0.04297 0.265625,-0.121094 0.375,-0.21875 L 23,39.625 c 0.238281,-0.101562 0.429688,-0.292969 0.53125,-0.53125 L 47.6875,14.90625 c 0.296875,-0.242187 0.433594,-0.628906 0.347656,-1.003906 -0.08594,-0.371094 -0.378906,-0.664063 -0.75,-0.75 -0.375,-0.08594 -0.761718,0.05078 -1.003906,0.347656 L 22.34375,37.40625 C 21.625,37.074219 20.527344,36.703125 19.125,36.75 c 0.164063,-0.445312 0.410156,-0.710937 0.5,-1.25 0.21875,-1.300781 0.101563,-2.898437 -1.0625,-4.0625 -1.167969,-1.167969 -2.777344,-1.277344 -4.09375,-1.03125 -0.464844,0.08594 -0.691406,0.324219 -1.09375,0.46875 0.01563,-0.140625 0.05859,-0.164062 0.0625,-0.3125 0.02344,-0.867187 -0.179687,-1.941406 -0.84375,-2.90625 L 36.5,3.71875 C 36.796875,3.433594 36.886719,2.992188 36.726563,2.613281 36.570313,2.234375 36.191406,1.992188 35.78125,2 35.75,2 35.71875,2 35.6875,2 Z M 11.09375,29.15625 c 0.25,0.457031 0.355469,0.902344 0.34375,1.34375 -0.01563,0.679688 -0.234375,1.265625 -0.375,1.65625 -0.152344,0.421875 -0.0078,0.890625 0.355469,1.152344 0.363281,0.261719 0.855469,0.25 1.207031,-0.02734 0.285156,-0.222656 1.238281,-0.730469 2.1875,-0.90625 0.949219,-0.175781 1.792969,-0.08203 2.34375,0.46875 0.554688,0.554688 0.660156,1.402344 0.5,2.34375 -0.160156,0.941406 -0.652344,1.894531 -0.84375,2.15625 -0.277344,0.351563 -0.289062,0.84375 -0.02734,1.207031 0.261719,0.363282 0.730469,0.507813 1.152344,0.355469 1.269531,-0.386719 2.257813,-0.25 2.9375,-0.03125 L 20.40625,39.34375 9.375,43.53125 6.5,40.625 10.65625,29.59375 Z"
       id="path5"
       inkscape:connector-curvature="0" />
  </g>
</svg>
